<svg width="1200" height="760" viewBox="0 0 1200 760" fill="none" xmlns="http://www.w3.org/2000/svg">
  <rect width="1200" height="760" rx="48" fill="#FBF4F8"/>
  <circle cx="1012" cy="144" r="126" fill="#F0D5E3"/>
  <circle cx="176" cy="622" r="134" fill="#F5E3EC"/>
  <rect x="138" y="132" width="924" height="496" rx="34" fill="white"/>
  <rect x="190" y="186" width="370" height="388" rx="28" fill="#F9F5F8"/>
  <rect x="602" y="188" width="324" height="84" rx="22" fill="#F6E6EE"/>
  <rect x="602" y="300" width="292" height="22" rx="11" fill="#E7CBD9"/>
  <rect x="602" y="342" width="252" height="22" rx="11" fill="#EDD9E3"/>
  <rect x="602" y="418" width="320" height="126" rx="30" fill="#5F1F42"/>
  <rect x="636" y="454" width="176" height="18" rx="9" fill="#F8DCE9"/>
  <rect x="636" y="490" width="136" height="18" rx="9" fill="#EFC0D4"/>
  <circle cx="296" cy="306" r="72" fill="#F1C8B2"/>
  <path d="M232 298C232 258.235 264.235 226 304 226H316C355.765 226 388 258.235 388 298V334H232V298Z" fill="#A2517E"/>
  <rect x="236" y="374" width="180" height="138" rx="44" fill="#FFFFFF"/>
  <rect x="264" y="402" width="122" height="134" rx="28" fill="#FFFFFF"/>
  <rect x="256" y="430" width="138" height="22" rx="11" fill="#EED4E1"/>
  <rect x="304" y="388" width="42" height="116" rx="21" fill="#873260"/>
  <rect x="268" y="424" width="114" height="42" rx="21" fill="#873260"/>
  <rect x="156" y="420" width="164" height="66" rx="33" fill="#F2CBB8"/>
  <rect x="130" y="438" width="206" height="38" rx="19" fill="#F6D8C8"/>
  <rect x="382" y="430" width="118" height="36" rx="18" fill="#F0D1DE"/>
  <rect x="452" y="414" width="52" height="120" rx="20" fill="#873260"/>
  <circle cx="468" cy="410" r="26" fill="#F0C8B2"/>
  <path d="M660 226H692V194H734V226H766V268H734V300H692V268H660V226Z" fill="#873260"/>
</svg>
