<svg width="640" height="170" viewBox="0 0 640 170" fill="none" xmlns="http://www.w3.org/2000/svg">
  <rect width="640" height="170" rx="24" fill="white"/>
  <g transform="translate(18 26)">
    <path d="M52 13.5H89.5V46H122V83.5H89.5V116H52V83.5H19.5V46H52V13.5Z" fill="#873260"/>
    <path d="M125 56C125 29.49 144.445 10 171.774 10C183.289 10 194.06 13.46 203.02 19.71L191.682 36.652C186.013 32.707 179.546 30.798 172.127 30.798C158.375 30.798 148.76 41.066 148.76 56C148.76 70.934 158.375 81.202 172.127 81.202C179.546 81.202 186.013 79.293 191.682 75.348L203.02 92.29C194.06 98.54 183.289 102 171.774 102C144.445 102 125 82.51 125 56Z" fill="#5F1F42"/>
    <path d="M134 56C134 20.667 168.5 5.5 168.5 5.5C152.5 24.5 157.5 48.5 157.5 48.5C161 37 169.5 26.5 169.5 26.5C167 34.5 167.5 41.5 167.5 41.5C177 21.5 196.5 10.5 196.5 10.5C168 41 182 77.5 182 77.5C172.5 67.5 167 58.5 164.5 50.5C160.5 70 173.5 88.5 173.5 88.5C145.5 77.5 134 56 134 56Z" fill="#873260" fill-opacity="0.16"/>
    <circle cx="184.5" cy="15.5" r="4.5" fill="#D89FBD"/>
  </g>
  <g transform="translate(220 42)">
    <text x="0" y="42" fill="#5F1F42" font-family="Arial, Helvetica, sans-serif" font-size="56" font-weight="700" font-style="italic" letter-spacing="1">1st AIDE</text>
    <text x="3" y="95" fill="#873260" font-family="Arial, Helvetica, sans-serif" font-size="35" font-weight="700" font-style="italic" letter-spacing="2">HOME CARE INC</text>
  </g>
</svg>
